<svg width="52" height="38" viewBox="0 0 52 38" fill="none" xmlns="http://www.w3.org/2000/svg">
<path d="M13.3424 27.0706C14.5785 27.5278 14.8808 27.9783 15.0353 28.4153C14.5209 29.3199 14.3313 30.3733 14.4979 31.4007C14.5583 32.3353 14.5717 32.8732 14.1284 33.1354C14.0396 33.1874 13.9749 33.2724 13.9485 33.3719C13.922 33.4714 13.936 33.5774 13.9873 33.6666L14.0814 33.8347C14.3257 34.3532 14.6627 34.8226 15.0756 35.2198C16.2176 35.8922 18.5755 34.5138 19.5227 33.9087C19.7933 34.3594 19.9167 34.8834 19.8757 35.4077C19.8348 35.9319 19.6316 36.4303 19.2943 36.8335C19.255 36.8885 19.2306 36.9527 19.2235 37.0198C19.2165 37.087 19.227 37.1549 19.254 37.2168C19.2834 37.2769 19.3268 37.3291 19.3806 37.3689C19.4344 37.4087 19.4969 37.4349 19.563 37.4454L21.6186 37.7076H21.6724C21.7273 37.7073 21.7816 37.6951 21.8314 37.6719C21.8813 37.6487 21.9256 37.615 21.9612 37.5732C22.813 36.5594 23.4793 35.4031 23.9295 34.1575C24.2049 34.2112 24.4602 34.2516 24.7155 34.2852C24.4007 35.3243 23.8302 36.2676 23.0562 37.0285C23.01 37.0706 22.9743 37.1229 22.9522 37.1813C22.93 37.2398 22.9219 37.3026 22.9286 37.3647C22.9369 37.4255 22.9587 37.4836 22.9924 37.5348C23.0261 37.586 23.0709 37.629 23.1234 37.6606C23.624 37.8098 24.1479 37.8645 24.6685 37.8219H25.2059C25.2911 37.8165 25.3729 37.7861 25.441 37.7345C26.425 36.914 27.1294 35.8071 27.4563 34.5676C27.463 34.5253 27.463 34.4822 27.4563 34.4399C28.5219 34.4149 29.5675 34.1458 30.5129 33.6532L30.5532 33.6935C30.5104 33.7205 30.4734 33.7558 30.4446 33.7974C30.4157 33.839 30.3955 33.886 30.3852 33.9356C30.0879 35.1085 29.4799 36.1794 28.6252 37.0353C28.579 37.0773 28.5433 37.1296 28.5211 37.188C28.499 37.2465 28.4909 37.3093 28.4976 37.3714C28.5044 37.4326 28.5256 37.4914 28.5595 37.5428C28.5933 37.5942 28.6389 37.6369 28.6924 37.6673C29.1928 37.8171 29.7169 37.8719 30.2375 37.8287H30.7682C30.8536 37.824 30.9355 37.7935 31.0033 37.7413C31.935 36.9696 32.6195 35.9408 32.9716 34.7828C33.1326 34.793 33.2942 34.793 33.4552 34.7828C33.4374 35.5415 33.2684 36.289 32.9581 36.9815C32.935 37.0333 32.923 37.0894 32.923 37.1462C32.923 37.203 32.935 37.2591 32.9581 37.3109C32.984 37.3613 33.021 37.4052 33.0665 37.439C33.1119 37.4728 33.1644 37.4957 33.2201 37.5059C33.7199 37.6269 34.2311 37.6945 34.745 37.7076C35.2892 37.7076 35.4168 37.5732 35.4974 37.5127C35.5806 37.4341 35.635 37.33 35.6519 37.2168C37.1298 34.0028 37.7613 31.0645 37.5665 28.5834C37.5354 28.1872 37.4104 27.6779 37.4104 27.6779C37.2545 26.4967 36.2572 24.2526 34.8257 23.0295C30.9361 19.7416 24.0101 20.5014 17.5947 24.9257C17.5579 24.9459 17.5276 24.9762 17.5074 25.013C17.0237 24.9593 14.0478 24.697 13.0468 26.5528C13.0203 26.602 13.0046 26.6563 13.0009 26.7121C12.9971 26.7679 13.0054 26.8238 13.0252 26.8761C13.0449 26.9284 13.0757 26.9758 13.1153 27.0152C13.155 27.0545 13.2027 27.0849 13.2551 27.1042L13.3424 27.0706ZM25.0715 37.0285C24.7558 37.0285 24.3998 37.0285 24.1512 37.0285C24.7646 36.2399 25.2208 35.3405 25.4948 34.3794C25.9112 34.4197 26.3076 34.4466 26.6771 34.4466C26.404 35.4451 25.8461 36.3424 25.0715 37.0285ZM30.6338 37.0285C30.3248 37.0285 29.9956 37.0285 29.7135 37.0285C30.3939 36.1729 30.8861 35.1831 31.1578 34.1238C31.488 34.3419 31.8477 34.5118 32.2259 34.6281C31.9232 35.5583 31.3727 36.3882 30.6338 37.0285ZM16.708 25.6989H16.7684C17.3074 25.6983 17.834 25.86 18.2799 26.1628C18.3127 26.228 18.3625 26.283 18.424 26.322C18.4855 26.3611 18.5564 26.3828 18.6292 26.3847C18.6897 26.3841 18.7493 26.3703 18.8039 26.3444C18.8501 26.3191 18.8909 26.2849 18.9237 26.2437C18.9566 26.2025 18.9809 26.1552 18.9953 26.1045C19.0097 26.0538 19.0139 26.0007 19.0075 25.9484C19.0012 25.8961 18.9845 25.8455 18.9584 25.7997C18.8279 25.5822 18.633 25.4107 18.4008 25.3089C21.0793 23.4251 24.1758 22.2228 27.4227 21.8058C30.2375 21.5234 32.7163 22.1487 34.389 23.5674C37.459 26.1561 37.6605 31.0174 34.9466 36.9008C34.5771 36.9061 34.2081 36.8746 33.8449 36.8066C34.1002 36.0805 34.4629 34.7895 34.0464 34.1171C34.0061 34.0525 33.9476 34.0014 33.8782 33.9703C33.8088 33.9392 33.7317 33.9294 33.6568 33.9423C33.1633 33.985 32.6665 33.9179 32.2019 33.7459C31.7374 33.5739 31.3166 33.3011 30.9697 32.9472C30.9197 32.8947 30.8564 32.857 30.7865 32.838C30.7167 32.819 30.6429 32.8196 30.5733 32.8396C30.5218 32.8247 30.4678 32.8205 30.4146 32.8275C30.3615 32.8344 30.3103 32.8523 30.2643 32.8799C29.2835 33.4582 27.3892 34.0095 23.8959 33.3237H23.7616C23.6665 33.305 23.568 33.3231 23.4857 33.3742C23.4034 33.4254 23.3436 33.5058 23.3182 33.5994C22.9272 34.7991 22.3217 35.9177 21.5313 36.9008L20.2751 36.7394C20.5626 36.2189 20.6992 35.6285 20.6695 35.0345C20.6399 34.4405 20.4451 33.8666 20.1072 33.3775C20.3966 33.0937 20.6112 32.7426 20.7319 32.3555C20.7469 32.3042 20.7513 32.2504 20.7447 32.1973C20.7381 32.1443 20.7207 32.0932 20.6935 32.0472C20.6663 32.0012 20.63 31.9613 20.5868 31.9299C20.5436 31.8985 20.4944 31.8764 20.4422 31.8648C20.3901 31.8533 20.3361 31.8526 20.2837 31.8628C20.2313 31.873 20.1816 31.8938 20.1375 31.9241C20.0935 31.9543 20.0562 31.9933 20.0278 32.0386C19.9995 32.0839 19.9808 32.1345 19.9728 32.1874C19.7397 32.6629 19.3908 33.0721 18.9584 33.3775C17.7358 34.1306 16.09 34.8769 15.5055 34.5676C15.2428 34.2639 15.0173 33.9298 14.8337 33.5725C15.3846 33.0211 15.3376 32.1739 15.2838 31.3469C15.2301 30.5199 15.1696 29.4979 15.7809 28.7246C15.8207 28.6741 15.8476 28.6146 15.8593 28.5514C15.871 28.4881 15.8672 28.423 15.8481 28.3615C15.7193 27.941 15.4926 27.5572 15.1866 27.2416C14.8806 26.9259 14.5041 26.6876 14.0881 26.5461C14.8237 25.9437 15.7593 25.6411 16.708 25.6989Z" fill="url(#paint0_linear)"/>
<path d="M26.9596 12.7494C26.9221 12.2853 28.2698 11.0567 28.8451 10.5325C29.5924 9.85087 29.8441 9.62203 29.8363 9.28446C29.8342 9.21014 29.8165 9.1372 29.7843 9.07075C29.7522 9.00431 29.7064 8.94597 29.6503 8.89983C29.5616 8.82747 29.4501 8.79216 29.3376 8.80083C27.2926 8.93878 24.2393 10.4108 23.0839 11.0015C23.0446 10.9386 22.9909 10.8867 22.9275 10.8506C21.8547 10.1927 20.8337 9.4476 19.8742 8.6223C19.8237 8.53564 19.7474 8.46841 19.6569 8.4308C18.5625 7.44567 17.5744 6.28041 17.3602 5.17194C17.3474 5.10313 17.3198 5.03821 17.2794 4.98201C17.2391 4.92581 17.1871 4.87978 17.1272 4.84735C17.0679 4.81461 17.0021 4.79629 16.935 4.79376C16.8678 4.79123 16.801 4.80456 16.7395 4.83275C14.7352 5.75295 12.881 7.22009 12.8028 7.28176C12.7526 7.3224 12.7113 7.37366 12.6816 7.43214C12.652 7.49062 12.6347 7.55498 12.6308 7.62095C9.51559 7.20599 6.35454 7.84576 3.61765 9.44513C1.3882 10.7386 0.157786 12.1928 0.110883 12.2626C0.0517721 12.3332 0.0146176 12.4208 0.00429442 12.5137C-0.00602873 12.6067 0.0109617 12.7007 0.0530364 12.7835C0.0139174 12.8594 -0.00416218 12.9451 0.000805633 13.0311C0.00577345 13.117 0.0335942 13.1999 0.0811781 13.2704C2.22307 16.4595 5.37494 18.0126 9.71346 18.0126H10.0621H10.0996L11.6302 20.348C11.6714 20.4106 11.7267 20.4617 11.7913 20.4971C11.8558 20.5325 11.9278 20.5509 12.0008 20.5509H12.0523C12.154 20.5379 14.4991 20.2263 15.2886 17.2369C16.2873 16.9706 17.2689 16.64 18.2279 16.2469L19.1362 17.3991C19.1739 17.4457 19.2201 17.484 19.2722 17.5119C19.3243 17.5397 19.3812 17.5566 19.4395 17.5614H19.4833C19.587 17.5611 19.6874 17.5239 19.7679 17.456L22.7884 14.8593C23.2277 15.1059 24.1517 15.6074 25.1914 16.0537C27.2238 16.9269 28.5965 17.1314 29.3861 16.6769C29.453 16.6394 29.5094 16.5845 29.5499 16.5177C29.5905 16.4509 29.6137 16.3744 29.6175 16.2956C29.6211 16.2167 29.6057 16.1381 29.5727 16.0669C29.5397 15.9958 29.49 15.9344 29.4283 15.8882C28.8748 15.4825 27.5615 14.3496 27.1113 13.3077V13.298C27.0311 13.1254 26.9798 12.9399 26.9596 12.7494ZM26.5656 11.5111H26.5516L26.2233 11.5225C26.2471 11.5175 26.2706 11.511 26.2936 11.503C26.3984 11.4641 26.5438 11.4202 26.7079 11.3764C26.6704 11.4202 26.6344 11.4641 26.6016 11.5063L26.5656 11.5111ZM26.6204 14.3026C26.1394 14.2009 25.6725 14.0373 25.2305 13.8157C25.2079 13.8034 25.1844 13.7931 25.1601 13.7849C25.5732 13.8624 25.9913 13.9085 26.4109 13.9228C26.4687 14.0478 26.5422 14.1792 26.6204 14.3026ZM27.8586 10.1949C27.4511 10.2501 27.0471 10.3297 26.6485 10.4335C27.1379 10.2517 27.635 10.0862 28.1103 9.96123L27.8586 10.1949ZM17.1991 8.69209C17.4583 8.52431 17.745 8.40767 18.045 8.34803C18.1079 8.34085 18.1687 8.31983 18.2232 8.28636C18.3154 8.38373 18.4092 8.48111 18.503 8.57524C18.305 8.68172 18.1228 8.81727 17.9621 8.97773C17.713 8.88468 17.4587 8.78947 17.1991 8.69209ZM17.5603 7.50572C17.1874 7.64336 16.8303 7.82353 16.4956 8.04292C16.3393 8.13542 16.1923 8.22468 16.0766 8.27986L16.0438 8.29934C15.8374 8.23442 15.6342 8.17437 15.434 8.11757C15.8512 7.90445 16.2809 7.71906 16.7207 7.56253C16.9474 7.47651 17.1804 7.38725 17.4055 7.2915C17.4587 7.36777 17.5118 7.44081 17.5666 7.51221L17.5603 7.50572ZM19.2801 9.30394C19.4364 9.44351 19.5928 9.57984 19.7491 9.70967C19.4958 9.60148 19.2353 9.49328 18.9674 9.38508C19.0668 9.3385 19.1742 9.31312 19.2832 9.31043L19.2801 9.30394ZM16.9099 6.49788C16.7536 6.56117 16.5832 6.62609 16.4112 6.69101C15.6404 6.98476 14.8478 7.28987 14.2396 7.82706C14.0567 7.79136 13.88 7.76215 13.7111 7.74105C14.6423 7.05183 15.6246 6.44023 16.6488 5.912C16.7226 6.11338 16.8098 6.30915 16.9099 6.49788ZM22.9604 13.8985C22.8813 13.8518 22.7905 13.8311 22.6998 13.8389C22.6091 13.8467 22.5229 13.8827 22.4523 13.9423L21.8394 14.4665C21.7966 14.3628 21.7189 14.2787 21.6209 14.2299C21.5228 14.1812 21.411 14.171 21.3063 14.2014C21.2016 14.2317 21.1111 14.3005 21.0515 14.3949C20.992 14.4894 20.9675 14.603 20.9826 14.7148C21.001 14.8469 21.0435 14.9741 21.1077 15.0897L21.0327 15.1546C20.9966 15.1127 20.9537 15.0775 20.906 15.0508C20.8764 14.9311 20.8022 14.8286 20.6997 14.7657C20.5972 14.7029 20.4749 14.6848 20.3596 14.7156C20.2443 14.7464 20.1456 14.8234 20.085 14.9298C20.0245 15.0362 20.0071 15.1632 20.0368 15.2828C20.0443 15.3166 20.0542 15.3496 20.0665 15.3818C19.9867 15.2796 19.9195 15.1887 19.8898 15.1433C19.8564 15.0928 19.8138 15.0496 19.7644 15.0161C19.7149 14.9827 19.6596 14.9598 19.6016 14.9485C19.5436 14.9373 19.4841 14.938 19.4264 14.9507C19.3686 14.9634 19.3139 14.9877 19.2652 15.0224C19.2166 15.057 19.1749 15.1012 19.1428 15.1526C19.1106 15.2039 19.0884 15.2613 19.0776 15.3215C19.0668 15.3817 19.0675 15.4435 19.0797 15.5035C19.0919 15.5634 19.1154 15.6202 19.1487 15.6707C19.307 15.8972 19.4777 16.1139 19.66 16.3199L19.5459 16.4173L18.711 15.3591C18.6485 15.2803 18.5629 15.2248 18.4672 15.2011C18.3716 15.1774 18.2711 15.1867 18.181 15.2277C17.116 15.6882 16.0184 16.0626 14.8978 16.3475C13.6533 16.1219 11.7428 15.0215 11.7271 15.0069C11.6756 14.9728 11.618 14.95 11.5577 14.9399C11.4974 14.9297 11.4357 14.9325 11.3765 14.9479C11.3172 14.9634 11.2617 14.9913 11.2132 15.0298C11.1647 15.0683 11.1242 15.1168 11.0944 15.1721C11.0646 15.2274 11.0459 15.2885 11.0396 15.3515C11.0333 15.4146 11.0394 15.4784 11.0577 15.5389C11.076 15.5994 11.1059 15.6554 11.1458 15.7035C11.1856 15.7515 11.2345 15.7906 11.2894 15.8184C11.366 15.8638 13.0092 16.8149 14.3647 17.1817C14.3166 17.3352 14.2602 17.4859 14.1958 17.6328C13.683 17.5057 13.21 17.2449 12.8215 16.8749C12.7789 16.8323 12.7287 16.7988 12.6736 16.7764C12.6185 16.7539 12.5597 16.7429 12.5006 16.7441C12.4414 16.7452 12.383 16.7584 12.3288 16.7829C12.2746 16.8075 12.2255 16.8429 12.1845 16.8871C12.1434 16.9313 12.1111 16.9835 12.0895 17.0407C12.0679 17.0979 12.0573 17.1589 12.0584 17.2203C12.0595 17.2817 12.0722 17.3423 12.0958 17.3986C12.1195 17.4549 12.1536 17.5058 12.1962 17.5485C12.6309 17.9661 13.1486 18.2797 13.7127 18.467C13.6026 18.6108 13.4813 18.7449 13.35 18.8679C12.8813 18.5369 12.4602 18.1385 12.0992 17.6848C12.0632 17.6363 12.0183 17.5957 11.9672 17.5652C11.916 17.5347 11.8596 17.515 11.8011 17.5071C11.7425 17.4993 11.6831 17.5035 11.6262 17.5195C11.5692 17.5355 11.5159 17.563 11.4692 17.6004C11.4225 17.6378 11.3833 17.6844 11.354 17.7375C11.3246 17.7906 11.3056 17.8492 11.298 17.9099C11.2905 17.9707 11.2945 18.0324 11.31 18.0915C11.3254 18.1506 11.3519 18.2059 11.3879 18.2544C11.7254 18.686 12.1106 19.0749 12.5354 19.4132C12.4262 19.4635 12.3139 19.5063 12.1993 19.5414L10.3404 16.7013C10.2801 16.6165 10.1939 16.5555 10.0958 16.5282C9.99777 16.5009 9.89371 16.5089 9.80062 16.5509C9.70752 16.5929 9.6309 16.6664 9.58327 16.7595C9.53563 16.8525 9.5198 16.9596 9.53835 17.0632C8.62274 17.0594 7.70962 16.9637 6.81173 16.7776C7.56062 16.2274 8.36265 15.1627 8.30637 13.4473C8.30335 13.3584 8.27582 13.2724 8.22704 13.1993C8.17826 13.1262 8.11029 13.0692 8.03121 13.0351C8.0965 12.9935 8.15045 12.9353 8.18795 12.866C8.22544 12.7967 8.24522 12.7186 8.2454 12.6391C8.2454 12.5806 8.2454 12.5498 8.2454 12.5336C8.24208 12.5806 8.23097 12.6268 8.21257 12.6699C8.24633 12.5388 8.25692 12.4024 8.24383 12.2674C8.24517 12.2036 8.23385 12.1401 8.21056 12.081C8.18727 12.0219 8.15252 11.9684 8.10846 11.9238C8.06441 11.8792 8.01199 11.8445 7.95446 11.8218C7.89694 11.7992 7.83554 11.789 7.77408 11.792C7.71262 11.795 7.65241 11.8111 7.5972 11.8393C7.54199 11.8675 7.49295 11.9072 7.45314 11.9559C7.41332 12.0046 7.38358 12.0613 7.36576 12.1224C7.34794 12.1835 7.34243 12.2478 7.34955 12.3112C7.34955 12.3956 7.34955 12.4443 7.34955 12.4735C7.34638 12.5276 7.34638 12.5818 7.34955 12.6358C7.34704 12.7282 7.37113 12.8192 7.41876 12.8973C7.46639 12.9754 7.53538 13.0369 7.6169 13.074C7.54953 13.1172 7.49428 13.178 7.45669 13.2504C7.4191 13.3227 7.40048 13.4041 7.40271 13.4862C7.47463 15.6707 5.85179 16.268 5.78613 16.2907C5.70548 16.3183 5.63396 16.3689 5.57975 16.4367C3.66186 15.7917 2.0027 14.5075 0.859765 12.7835C1.80863 11.7756 2.89606 10.9191 4.08668 10.242C6.80873 8.63941 9.98287 8.06911 13.0654 8.6288H13.1295C14.2834 8.65314 16.1001 9.24064 17.837 9.92715C17.8916 9.96501 17.9535 9.98994 18.0184 10.0002C19.9586 10.7711 21.7706 11.641 22.4038 11.9477C22.3892 12.022 22.3814 12.0975 22.3803 12.1733C22.3776 12.2867 22.4019 12.399 22.451 12.5004C22.5 12.6017 22.5724 12.6889 22.6618 12.7543C22.7358 12.8073 22.8236 12.8356 22.9135 12.8354C22.9949 12.8357 23.0749 12.8129 23.1448 12.7695C23.2147 12.7261 23.2719 12.6638 23.3103 12.5893C23.3487 12.5147 23.3669 12.4307 23.3628 12.3463C23.3587 12.2619 23.3325 12.1802 23.2871 12.11C23.3014 12.0521 23.3252 11.9972 23.3575 11.9477C23.3913 11.9208 23.4209 11.8884 23.445 11.8519C23.9281 11.6036 24.8052 11.1719 25.7902 10.7597C25.7379 10.8243 25.7037 10.9024 25.6911 10.9857C25.6786 11.069 25.6882 11.1543 25.719 11.2323C25.7497 11.3103 25.8004 11.3782 25.8656 11.4284C25.9308 11.4787 26.008 11.5096 26.0888 11.5176C25.1507 11.555 24.9944 11.5971 24.8818 11.6523C24.7886 11.6966 24.7128 11.7726 24.667 11.8678C24.6212 11.963 24.6082 12.0716 24.6301 12.1756C24.6521 12.2795 24.7076 12.3725 24.7875 12.4391C24.8675 12.5057 24.9669 12.5419 25.0694 12.5417C25.1227 12.5418 25.1756 12.5324 25.2258 12.5141C25.5141 12.475 25.8043 12.4538 26.095 12.4508C26.065 12.5693 26.0539 12.6921 26.0622 12.8144C26.0622 12.8647 26.0747 12.9166 26.0825 12.9669C25.5697 12.9198 24.9147 12.8046 24.7505 12.7024C24.6566 12.6336 24.5409 12.6048 24.4272 12.6217C24.3134 12.6386 24.2102 12.7 24.1387 12.7934C24.0672 12.8867 24.0327 13.0049 24.0424 13.1238C24.0521 13.2426 24.1052 13.3532 24.1908 13.4327C24.4528 13.6012 24.7456 13.7117 25.0507 13.7573C24.948 13.7504 24.8461 13.7804 24.7621 13.8422C24.6781 13.904 24.6172 13.9939 24.5895 14.0969C24.5619 14.1998 24.5691 14.3095 24.6101 14.4075C24.6511 14.5055 24.7233 14.586 24.8146 14.6353C25.5713 15.0426 26.5156 15.2423 27.3411 15.3818C27.365 15.3834 27.3891 15.3834 27.413 15.3818C27.4364 15.3835 27.4599 15.3835 27.4834 15.3818C27.6897 15.5993 27.8961 15.7973 28.0853 15.9677C26.697 15.8411 24.3909 14.7392 22.9604 13.8985Z" fill="url(#paint1_linear)"/>
<path d="M5.26351 12.5948C5.1643 12.5259 5.04284 12.5005 4.92567 12.5242C4.80849 12.5479 4.70512 12.6188 4.63814 12.7214C4.59017 12.7883 4.52723 12.842 4.45477 12.8779C4.38231 12.9138 4.3025 12.9308 4.22226 12.9275C4.15997 12.9262 4.09926 12.907 4.04683 12.872C3.99441 12.8371 3.95231 12.7878 3.92521 12.7295C3.8977 12.6752 3.86015 12.627 3.81469 12.5877C3.76924 12.5484 3.71678 12.5188 3.66031 12.5006C3.60383 12.4824 3.54445 12.4758 3.48555 12.4814C3.42666 12.487 3.36939 12.5046 3.31704 12.5332C3.26469 12.5617 3.21826 12.6007 3.18042 12.6479C3.14258 12.6951 3.11406 12.7495 3.0965 12.8081C3.07893 12.8668 3.07266 12.9284 3.07804 12.9895C3.08342 13.0507 3.10035 13.1101 3.12787 13.1645C3.22734 13.3653 3.37617 13.5354 3.55929 13.6573C3.74241 13.7793 3.95332 13.8489 4.17067 13.8591H4.24259C4.46739 13.8586 4.68875 13.8017 4.88777 13.6932C5.08678 13.5847 5.25754 13.4278 5.38545 13.2359C5.44943 13.1336 5.47248 13.0094 5.44972 12.8897C5.42695 12.77 5.36016 12.6642 5.26351 12.5948Z" fill="url(#paint2_linear)"/>
<path d="M32.6448 11.0822C32.5876 11.2082 32.5454 11.3406 32.5189 11.4768C32.4268 12.079 32.5077 12.6956 32.752 13.2521C33.1497 13.9996 33.8002 14.5746 34.5826 14.8703C34.2762 15.8279 34.5093 17.1799 34.8833 17.8962C35.1784 18.4707 35.7047 19.187 36.3024 19.5298C36.6432 19.7053 37.0126 19.8156 37.3925 19.8553C37.6387 19.8819 37.8803 19.9425 38.1105 20.0353C38.1623 20.0596 38.2188 20.0721 38.2759 20.0717C38.3343 20.0703 38.3916 20.0559 38.4439 20.0294C38.4962 20.003 38.5421 19.9651 38.5785 19.9185L38.6311 19.9702C38.9896 20.3014 39.4388 20.5132 39.9186 20.5773C39.9244 20.6061 39.9326 20.6342 39.943 20.6616C39.9907 21.1415 39.9838 21.6254 39.9223 22.1037C39.2081 22.2166 38.4488 22.5269 38.1349 23.3178C38.0964 23.4169 38.0976 23.5275 38.1384 23.6257C38.1792 23.7239 38.2563 23.8018 38.3529 23.8426C38.4003 23.8613 38.4506 23.871 38.5014 23.8713C38.5819 23.873 38.6609 23.8497 38.728 23.8045C38.7952 23.7594 38.8472 23.6945 38.8773 23.6185C39.0315 23.2355 39.4412 22.9884 40.1197 22.8946H40.1385C40.1767 22.9074 40.2167 22.9139 40.2569 22.9137C40.3293 22.9139 40.4003 22.8933 40.4618 22.8544C40.7166 22.8409 40.9719 22.8409 41.2267 22.8544C41.5237 22.8697 42.424 23.155 42.9183 23.3312C42.9677 23.3486 43.0199 23.3559 43.072 23.3526C43.1242 23.3494 43.1752 23.3358 43.2221 23.3125C43.2691 23.2892 43.311 23.2567 43.3457 23.2169C43.3803 23.177 43.4069 23.1307 43.4239 23.0804C43.4409 23.0301 43.4481 22.9768 43.4449 22.9237C43.4418 22.8706 43.4284 22.8187 43.4055 22.7708C43.3826 22.723 43.3508 22.6802 43.3117 22.6449C43.2726 22.6096 43.2271 22.5825 43.1777 22.5652C43.0348 22.5135 41.768 22.0711 41.2643 22.0443C41.1328 22.0443 40.9448 22.029 40.7268 22.029C40.7794 21.5363 40.7794 21.0393 40.7268 20.5467C40.9703 20.505 41.2077 20.4323 41.4335 20.3303C41.8832 20.1258 42.2787 19.8153 42.5875 19.4244C42.6869 19.4641 42.7928 19.4842 42.8995 19.4838C42.9505 19.4836 43.0013 19.4798 43.0518 19.4723C43.7942 19.3631 44.7866 18.4439 45.2358 17.856C46.2094 18.0915 47.5739 17.3657 48.1509 16.8065C49.0155 15.9696 49.397 15.012 49.8049 13.8477C50.3819 12.1987 50.5905 9.73976 49.2786 8.2364C49.2444 8.19552 49.2023 8.16214 49.155 8.13826C49.1077 8.11438 49.0562 8.1005 49.0035 8.09746C48.9508 8.09442 48.8981 8.10228 48.8485 8.12056C48.7988 8.13884 48.7534 8.16718 48.7148 8.20385C48.675 8.23894 48.6425 8.2818 48.6192 8.32988C48.5959 8.37797 48.5822 8.43032 48.5791 8.48385C48.5759 8.53738 48.5833 8.59102 48.6008 8.6416C48.6183 8.69218 48.6456 8.73868 48.6809 8.77838C49.694 9.93893 49.5963 12.034 49.0569 13.5815C48.6847 14.6501 48.3408 15.5138 47.6002 16.232C47.0514 16.7643 45.7884 17.3312 45.2696 17.0286C45.2222 17.0009 45.1696 16.9835 45.1153 16.9776C45.0609 16.9717 45.0059 16.9773 44.9538 16.9942C44.9018 17.0114 44.8537 17.0393 44.8127 17.0762C44.7716 17.1131 44.7384 17.1582 44.7151 17.2087C44.5272 17.6357 43.4859 18.5492 43.0236 18.6775C43.1857 18.2762 43.2669 17.8457 43.2623 17.4117C43.266 17.3564 43.2586 17.3009 43.2404 17.2487C43.2222 17.1965 43.1936 17.1486 43.1565 17.1081C43.1194 17.0676 43.0746 17.0353 43.0247 17.0132C42.9748 16.9912 42.921 16.9798 42.8666 16.9798C42.8123 16.9798 42.7585 16.9912 42.7086 17.0132C42.6587 17.0353 42.6138 17.0676 42.5767 17.1081C42.5396 17.1486 42.5111 17.1965 42.4929 17.2487C42.4747 17.3009 42.4672 17.3564 42.471 17.4117C42.4802 17.8728 42.3556 18.3265 42.1128 18.7159C41.8701 19.1053 41.52 19.413 41.1065 19.6006C40.4073 19.9185 39.6611 19.8285 39.1593 19.3651C38.6574 18.9016 38.6067 18.4975 38.5954 17.5993C38.5954 17.4893 38.5552 17.3832 38.4826 17.3017C38.4099 17.2203 38.3101 17.1693 38.2026 17.1589C38.0933 17.169 37.9918 17.2212 37.9189 17.3048C37.8459 17.3884 37.8069 17.4971 37.8098 17.6089C37.8098 18.1643 37.8098 18.6699 38.024 19.141C37.8492 19.0969 37.6744 19.0778 37.5034 19.051C37.2175 19.0256 36.9382 18.9491 36.6783 18.825C36.261 18.578 35.8212 18.0034 35.5712 17.5151C35.2442 16.8869 35.0563 15.4487 35.4434 14.8607C35.4781 14.8085 35.5003 14.7487 35.5081 14.6862C35.516 14.6237 35.5092 14.5601 35.4885 14.5007C35.4675 14.4412 35.4331 14.3875 35.388 14.3439C35.343 14.3004 35.2886 14.2682 35.2292 14.2498C34.4022 13.9989 33.7537 13.5029 33.4493 12.8882C33.2924 12.5081 33.2372 12.0924 33.2895 11.6836C33.6799 11.9334 34.1024 12.1268 34.545 12.2581C34.581 12.2688 34.6184 12.274 34.6559 12.2734C34.7474 12.2689 34.8344 12.2321 34.9022 12.1693C34.9699 12.1065 35.0142 12.0217 35.0273 11.9293C35.0404 11.837 35.0216 11.7428 34.974 11.6631C34.9265 11.5833 34.8533 11.5229 34.7668 11.4921C34.3437 11.3701 33.9439 11.1758 33.5846 10.9175C33.5888 10.8397 33.571 10.7622 33.5334 10.6944C33.4958 10.6265 33.4398 10.571 33.3722 10.5345C33.3394 10.5179 33.3047 10.5056 33.2688 10.4981C33.0825 10.2704 32.9276 10.0179 32.8083 9.74742C33.0921 9.2763 33.9736 8.84158 35.0168 8.91818C35.9227 8.98329 38.1424 9.2763 39.1517 10.5556C39.1945 10.6091 39.2498 10.6507 39.3126 10.6765C39.3754 10.7023 39.4435 10.7114 39.5107 10.7031C39.5778 10.6946 39.6415 10.6686 39.6959 10.6277C39.7502 10.5868 39.7932 10.5322 39.8209 10.4694C40.0201 10.0232 40.9768 9.46398 41.4955 9.33376C41.6812 9.2939 41.8698 9.26956 42.0594 9.26098C42.3761 9.25139 42.6894 9.19129 42.9879 9.08288C43.6889 8.80327 43.7622 8.39727 43.8393 7.96637C43.8581 7.86104 43.8806 7.74231 43.9145 7.60633C43.9746 7.3612 44.031 7.10458 44.0893 6.84029C44.4276 5.30821 44.7753 3.73591 46.1361 3.04456C46.7582 2.72474 47.2243 2.87412 47.8821 3.06563C48.0532 3.11734 48.2299 3.17096 48.4159 3.21884C48.6588 3.26958 48.9069 3.28952 49.1546 3.27821C49.3512 3.26606 49.5485 3.28153 49.741 3.32417C49.9897 3.4355 50.2189 3.58752 50.4195 3.77422L50.5097 3.84508C50.149 4.04656 49.7597 4.18937 49.3557 4.26831L49.117 4.3296C49.0839 4.33817 49.0522 4.35173 49.023 4.36981L49.0005 4.34683C48.9572 4.31044 48.9178 4.28172 48.8821 4.25682C48.8875 4.14991 48.8511 4.04515 48.7808 3.9656C48.7105 3.88604 48.612 3.83821 48.5071 3.83263C48.4022 3.82704 48.2993 3.86415 48.2213 3.9358C48.1432 4.00746 48.0963 4.10777 48.0908 4.21469C48.0636 4.34968 48.0799 4.48999 48.1371 4.61485C48.1943 4.73971 48.2894 4.84248 48.4084 4.90796L48.4742 4.95583C48.4856 5.04311 48.5253 5.12401 48.587 5.18565C48.9798 5.57824 49.0587 5.84827 49.0061 5.95169C48.9535 6.0551 48.6415 6.21023 48.3088 6.17192C48.1208 6.14894 47.9197 6.06659 47.8915 5.93254C47.8806 5.88085 47.8597 5.83188 47.8301 5.78842C47.8006 5.74495 47.7629 5.70784 47.7193 5.67921C47.6756 5.65058 47.6269 5.63099 47.5758 5.62155C47.5248 5.61211 47.4724 5.61301 47.4217 5.6242C47.3709 5.6354 47.3229 5.65666 47.2802 5.68677C47.2376 5.71689 47.2011 5.75528 47.173 5.79973C47.1449 5.84419 47.1257 5.89386 47.1165 5.94589C47.1072 5.99792 47.1081 6.0513 47.1191 6.10298C47.1534 6.25208 47.2195 6.39166 47.3128 6.5118C47.406 6.63195 47.524 6.72971 47.6585 6.79816V6.83838C47.6496 7.24365 47.7881 7.63795 48.0475 7.94531C48.0851 7.98824 48.1311 8.02256 48.1826 8.046C48.2342 8.06944 48.29 8.08147 48.3464 8.08128C48.4221 8.08069 48.4961 8.05802 48.5596 8.01595C48.6231 7.97387 48.6734 7.91416 48.7046 7.84386C48.7359 7.77356 48.7467 7.69562 48.7358 7.61925C48.725 7.54288 48.6929 7.47128 48.6434 7.41291C48.5399 7.29163 48.4744 7.14155 48.4554 6.98201C48.9497 6.98201 49.5004 6.77518 49.7241 6.29832C49.8538 6.02255 49.897 5.59931 49.5211 5.04967H49.5474C50.1827 4.88881 50.9044 4.70496 51.4269 4.09212L51.4382 4.0768L51.4514 4.06148L51.4626 4.04233C51.4696 4.03126 51.4759 4.01974 51.4814 4.00786L51.4984 3.97147L51.5096 3.93509C51.5137 3.92191 51.5168 3.90847 51.519 3.89487C51.52 3.88276 51.52 3.87059 51.519 3.85848C51.52 3.84509 51.52 3.83165 51.519 3.81826C51.5199 3.80551 51.5199 3.79271 51.519 3.77996V3.74166C51.519 3.73017 51.519 3.71676 51.519 3.70527L51.5059 3.66889L51.489 3.63441C51.4828 3.62251 51.4759 3.611 51.4683 3.59994C51.4625 3.58853 51.4549 3.57818 51.4457 3.5693C51.4379 3.55773 51.4284 3.54741 51.4175 3.53866C51.4142 3.53271 51.4097 3.52751 51.4044 3.52334L51.3893 3.51185L51.3743 3.49844C51.2052 3.37396 51.0585 3.25522 50.9157 3.14032C50.6419 2.88393 50.3231 2.68251 49.9759 2.54664C49.758 2.4863 49.5326 2.45856 49.3068 2.46429C49.4088 2.29115 49.4591 2.09152 49.4516 1.88976C49.4455 1.62726 49.3596 1.37315 49.2058 1.16251C49.0519 0.951881 48.8377 0.795122 48.5926 0.713884C48.4623 0.681265 48.3269 0.675302 48.1943 0.69634C48.0617 0.717379 47.9345 0.765001 47.8201 0.836451C47.7755 0.719301 47.7119 0.610563 47.6322 0.514714C47.5329 0.403553 47.4118 0.314781 47.2769 0.254096C47.1419 0.193411 46.9959 0.162156 46.8484 0.162335C46.5435 0.14603 46.2417 0.232148 45.9895 0.407468C45.8996 0.314466 45.797 0.235133 45.685 0.171911C45.5158 0.0783258 45.3294 0.021499 45.1375 0.0050178C44.9457 -0.0114634 44.7526 0.0127589 44.5704 0.0761557C43.7961 0.313628 43.2548 1.06435 43.1288 2.03722C43.0179 2.97753 43.3675 3.84508 44.0216 4.2664C43.7017 5.03842 43.4629 5.84277 43.3093 6.66602C43.2529 6.92073 43.1965 7.17161 43.1382 7.40908C43.0988 7.56612 43.0743 7.70017 43.0536 7.82083C42.986 8.20385 42.9803 8.21725 42.689 8.33407C42.4625 8.40972 42.2263 8.45101 41.988 8.45664C41.7589 8.46937 41.5314 8.5014 41.3076 8.55239C40.597 8.76176 39.9482 9.14659 39.4186 9.67273C38.1349 8.46813 35.9941 8.18087 35.0732 8.11384C33.7443 8.01425 32.4418 8.61942 32.0452 9.49462C31.9983 9.60187 31.8742 9.87764 32.4343 10.6954C32.4868 10.8335 32.5577 10.9637 32.6448 11.0822ZM47.8596 1.93955C48.0475 1.63122 48.2449 1.46269 48.3877 1.49908C48.4663 1.5362 48.5331 1.59497 48.5806 1.66875C48.6281 1.74252 48.6544 1.82836 48.6565 1.91657C48.6648 1.96603 48.6536 2.01681 48.6255 2.058C48.5974 2.09918 48.5545 2.12748 48.5062 2.1368C48.457 2.15324 48.4116 2.17949 48.3726 2.21402C48.3335 2.24855 48.3016 2.29066 48.2787 2.33789L48.1058 2.29959C47.9179 2.24405 47.7299 2.1866 47.542 2.14255C47.6074 2.13854 47.6707 2.11785 47.7262 2.08238C47.7817 2.04691 47.8276 1.9978 47.8596 1.93955ZM43.9126 2.13106C43.9709 1.64462 44.2359 1.01647 44.796 0.844111C44.8754 0.812713 44.9604 0.798539 45.0455 0.802496C45.1306 0.806453 45.214 0.828454 45.2903 0.867092C45.3791 0.929671 45.4547 1.00967 45.5128 1.1024C45.5709 1.19513 45.6103 1.29873 45.6286 1.40715C45.6518 1.51127 45.7146 1.60175 45.8032 1.65868C45.8919 1.7156 45.9991 1.73431 46.1013 1.71069C46.2035 1.68708 46.2923 1.62306 46.3481 1.53274C46.404 1.44241 46.4224 1.33317 46.3992 1.22905C46.3785 1.12755 46.3992 1.09499 46.4161 1.08158C46.4706 1.03564 46.5337 1.00157 46.6016 0.981479C46.6695 0.961385 46.7407 0.955696 46.8108 0.964763C46.8523 0.959715 46.8943 0.964717 46.9335 0.97936C46.9727 0.994003 47.0079 1.01787 47.0364 1.04903C47.1441 1.24375 47.1795 1.47148 47.136 1.69059C47.1279 1.7744 47.1459 1.85867 47.1874 1.93152C47.2289 2.00436 47.2918 2.0621 47.3672 2.09659C46.8283 1.98676 46.2689 2.06713 45.7808 2.32448C45.2236 2.60661 44.749 3.0333 44.405 3.56164C44.0291 3.29544 43.8412 2.74772 43.9145 2.13489L43.9126 2.13106Z" fill="url(#paint3_linear)"/>
<path d="M37.6753 12.5159C37.7172 12.4816 37.7519 12.439 37.7772 12.3906C37.8025 12.3423 37.8178 12.2892 37.8223 12.2346C37.8269 12.18 37.8204 12.125 37.8035 12.073C37.7865 12.021 37.7593 11.9731 37.7236 11.9322C37.6879 11.8912 37.6443 11.8581 37.5956 11.8348C37.547 11.8115 37.4941 11.7986 37.4404 11.7968C37.3867 11.7949 37.3331 11.8043 37.283 11.8242C37.2329 11.8441 37.1873 11.8742 37.149 11.9126C36.7022 12.338 36.2835 12.7928 35.8953 13.2743C35.7281 13.4658 35.5702 13.6573 35.4292 13.8162C35.3851 13.8639 35.3532 13.9219 35.3362 13.985C35.3192 14.0482 35.3177 14.1147 35.3318 14.1786C35.3459 14.2425 35.3752 14.3019 35.4171 14.3515C35.459 14.4012 35.5122 14.4397 35.5721 14.4635C36.5239 14.8316 37.5297 15.0342 38.5474 15.063C38.677 15.063 38.8011 15.063 38.9233 15.0476C40.737 14.8849 43.312 14.4578 44.716 12.6059C45.0092 12.2229 45.7854 10.9283 45.5129 10.0894C45.4966 10.0391 45.4707 9.9926 45.4368 9.95249C45.4029 9.91237 45.3615 9.87945 45.3151 9.85562C45.2686 9.83179 45.2181 9.81752 45.1662 9.8136C45.1144 9.80969 45.0623 9.81622 45.0129 9.83282C44.9636 9.84942 44.9179 9.87576 44.8785 9.91034C44.8391 9.94493 44.8068 9.98707 44.7835 10.0344C44.7601 10.0817 44.7461 10.1332 44.7422 10.186C44.7384 10.2389 44.7448 10.2919 44.7611 10.3422C44.8701 10.6774 44.4829 11.5966 44.0882 12.1137C42.9887 13.5654 40.9513 14.0135 39.3311 14.1954L39.4176 14.1418C39.971 13.7875 40.4449 13.3183 40.8084 12.7648C40.8378 12.7212 40.8584 12.6721 40.8692 12.6203C40.8799 12.5686 40.8806 12.5152 40.8711 12.4631C40.8616 12.4111 40.8421 12.3615 40.8138 12.3172C40.7854 12.2728 40.7488 12.2346 40.706 12.2047C40.6632 12.1747 40.615 12.1537 40.5642 12.1428C40.5134 12.1318 40.4609 12.1312 40.4099 12.1408C40.3588 12.1505 40.3102 12.1704 40.2666 12.1992C40.2231 12.2281 40.1856 12.2654 40.1562 12.309C39.8522 12.772 39.455 13.1637 38.9909 13.4581C38.4271 13.8296 37.4873 14.1724 36.6321 13.9618L36.4009 13.8967L36.4874 13.7932C36.8555 13.3414 37.2523 12.9147 37.6753 12.5159Z" fill="url(#paint4_linear)"/>
<defs>
<linearGradient id="paint0_linear" x1="9.49884" y1="36.5258" x2="31.3064" y2="11.5012" gradientUnits="userSpaceOnUse">
<stop stop-color="#8BB35D"/>
<stop offset="0.44" stop-color="#8BB35D"/>
<stop offset="0.75" stop-color="#418F49"/>
<stop offset="1" stop-color="#2D925A"/>
</linearGradient>
<linearGradient id="paint1_linear" x1="-3.6777" y1="19.3186" x2="16.2737" y2="-6.38722" gradientUnits="userSpaceOnUse">
<stop stop-color="#8BB35D"/>
<stop offset="0.44" stop-color="#8BB35D"/>
<stop offset="0.75" stop-color="#418F49"/>
<stop offset="1" stop-color="#2D925A"/>
</linearGradient>
<linearGradient id="paint2_linear" x1="2.78255" y1="13.7512" x2="4.56256" y2="11.6599" gradientUnits="userSpaceOnUse">
<stop stop-color="#8BB35D"/>
<stop offset="0.44" stop-color="#8BB35D"/>
<stop offset="0.75" stop-color="#418F49"/>
<stop offset="1" stop-color="#2D925A"/>
</linearGradient>
<linearGradient id="paint3_linear" x1="29.594" y1="22.0045" x2="56.1065" y2="7.25278" gradientUnits="userSpaceOnUse">
<stop stop-color="#8BB35D"/>
<stop offset="0.44" stop-color="#8BB35D"/>
<stop offset="0.75" stop-color="#418F49"/>
<stop offset="1" stop-color="#2D925A"/>
</linearGradient>
<linearGradient id="paint4_linear" x1="34.0591" y1="14.6523" x2="40.6544" y2="5.89332" gradientUnits="userSpaceOnUse">
<stop stop-color="#8BB35D"/>
<stop offset="0.44" stop-color="#8BB35D"/>
<stop offset="0.75" stop-color="#418F49"/>
<stop offset="1" stop-color="#2D925A"/>
</linearGradient>
</defs>
</svg>
