<svg width="60" height="60" viewBox="0 0 60 60" fill="none" xmlns="http://www.w3.org/2000/svg">
<path d="M29.9995 58.5625C14.2495 58.5625 1.43652 45.7495 1.43652 29.9995C1.43652 14.2495 14.2495 1.43652 29.9995 1.43652C45.7495 1.43652 58.5625 14.2495 58.5625 29.9995C58.5625 45.7495 45.7495 58.5625 29.9995 58.5625Z" fill="#FFD100"/>
<path d="M30 2.874C35.365 2.874 40.6096 4.46491 45.0704 7.44556C49.5312 10.4262 53.0081 14.6627 55.0612 19.6193C57.1143 24.576 57.6514 30.0301 56.6048 35.292C55.5581 40.554 52.9746 45.3873 49.181 49.181C45.3873 52.9746 40.554 55.5581 35.292 56.6048C30.0301 57.6514 24.576 57.1143 19.6193 55.0612C14.6627 53.0081 10.4262 49.5312 7.44556 45.0704C4.46491 40.6096 2.874 35.365 2.874 30C2.874 22.8057 5.73191 15.9061 10.819 10.819C15.9061 5.73191 22.8057 2.874 30 2.874ZM30 0C13.458 0 0 13.458 0 30C0 46.542 13.458 60 30 60C46.542 60 60 46.542 60 30C60 13.458 46.542 0 30 0Z" fill="white"/>
<path d="M51.2463 22.086C50.9603 21.886 50.5418 21.8195 49.9908 21.8865C48.9068 22.0155 47.7658 22.5545 46.5678 23.5035C45.3698 24.4525 44.0168 25.8925 42.5088 27.8235C43.0088 26.7675 43.5743 25.6675 44.2053 24.5235C44.8363 23.3795 45.1563 22.75 45.1653 22.635C45.1788 22.4745 45.0438 22.3785 44.7603 22.35C44.2718 22.3308 43.7826 22.3579 43.2993 22.431L43.2258 22.443C42.2268 22.443 40.1463 24.474 39.1758 25.0245C39.2448 24.8745 39.3258 24.714 39.4233 24.522C39.6363 24.0945 39.7428 23.814 39.7428 23.6775C39.7428 23.4405 39.5518 23.268 39.1698 23.16C38.7218 23.0493 38.2562 23.0289 37.8003 23.1C37.2683 23.165 36.8243 23.699 36.4683 24.702C36.1762 25.533 35.8295 26.3438 35.4303 27.129C34.8123 28.3838 34.0205 29.5452 33.0783 30.579C32.2313 31.479 31.4813 31.967 30.8283 32.043C30.5433 32.0775 30.3333 32.0355 30.1953 31.9155C30.1206 31.838 30.0635 31.7455 30.0278 31.644C29.9921 31.5425 29.9786 31.4346 29.9883 31.3275C30.0042 30.7857 30.1028 30.2495 30.2808 29.7375C30.5658 28.9163 30.904 28.1146 31.2933 27.3375C31.4933 26.9115 31.7863 26.351 32.1723 25.656C32.5583 24.961 32.7493 24.5385 32.7453 24.3885C32.7453 24.1235 32.5678 23.9455 32.2128 23.8545C31.8578 23.7635 31.3293 23.762 30.6273 23.85C30.518 23.8652 30.4124 23.8997 30.3153 23.952H30.3048C30.2912 23.9578 30.2781 23.9648 30.2658 23.973C29.3178 24.4665 27.7683 26.223 26.4213 26.874C26.4408 26.814 26.4618 26.754 26.4813 26.694C26.9193 25.269 27.5313 21.4575 24.8958 21.894C22.0563 22.3665 22.7133 26.6175 24.1053 26.262C23.7215 28.0834 23.0263 29.825 22.0503 31.41C21.1173 32.892 20.2758 33.6865 19.5258 33.7935C19.1898 33.843 18.9483 33.7635 18.7998 33.558C18.6513 33.3525 18.5778 32.9925 18.5778 32.4765C18.5977 31.887 18.6822 31.3015 18.8298 30.7305C18.9978 30.0105 19.9728 27.4305 20.2683 26.703C20.4388 26.3191 20.589 25.9266 20.7183 25.527C20.7183 25.254 20.5218 25.0605 20.1183 24.9465C19.6237 24.8271 19.1095 24.8133 18.6093 24.906C18.2619 24.9364 17.9279 25.0546 17.6388 25.2495C17.3864 25.4797 17.2004 25.7734 17.1003 26.1C16.6173 27.3405 16.4043 27.561 16.1133 28.7235C15.8384 29.7938 15.6483 30.8842 15.5448 31.9845C15.0286 32.6566 14.4483 33.277 13.8123 33.837C13.2793 34.287 12.8253 34.537 12.4503 34.587C12.1443 34.63 11.9223 34.5635 11.7843 34.3875C11.6463 34.2105 11.5773 33.906 11.5773 33.471C11.5773 32.805 11.7178 31.9475 11.9988 30.8985C12.3237 29.7316 12.7246 28.5871 13.1988 27.4725C13.5138 26.7005 13.8938 25.884 14.3388 25.023C14.7838 24.162 15.0043 23.6545 15.0003 23.5005C15.0003 23.2085 14.7958 22.996 14.3868 22.863C13.8881 22.7263 13.365 22.7047 12.8568 22.8C12.2943 22.881 11.9043 23.019 11.6868 23.2185C11.4693 23.418 11.1648 23.997 10.7688 24.9615C8.20528 31.215 6.61828 38.2755 11.4648 37.5915C12.4713 37.4415 14.3238 36.369 15.5793 34.563C15.7173 35.34 16.0628 35.896 16.6158 36.231C17.1688 36.566 17.9043 36.666 18.8223 36.531C19.9463 36.369 20.9963 35.824 21.9723 34.896C22.9483 33.968 23.8908 32.618 24.7998 30.846C25.0263 30.396 25.2348 29.946 25.4343 29.496C26.3561 29.0716 27.2326 28.555 28.0503 27.954C27.7574 28.6768 27.507 29.416 27.3003 30.168C27.1445 30.7351 27.0356 31.314 26.9748 31.899C26.9448 32.334 26.8818 34.644 29.3748 34.3455C30.3688 34.2255 31.3188 33.7885 32.2248 33.0345C33.1308 32.2805 34.0538 31.1515 34.9938 29.6475C34.6653 30.4455 34.3158 31.269 33.9438 32.112C33.8838 32.25 33.8208 32.3895 33.7593 32.5275C33.3948 33.327 33.0333 34.059 32.6733 34.7295C27.1503 35.3415 22.0143 36.543 20.3583 38.8965C18.5793 41.4255 20.4678 44.964 24.9438 44.9655C28.1463 44.9655 31.2048 42.6735 34.2438 36.381C37.4103 36.0045 40.2603 35.826 42.8148 35.721C42.9483 36.744 44.0718 37.479 45.7023 37.476C46.4854 37.4696 47.2597 37.3091 47.9808 37.0035L48.3198 36.288H45.7038C45.5133 36.288 45.4038 36.162 45.4548 36.006C45.4947 35.9206 45.5584 35.8484 45.6382 35.7982C45.7179 35.7479 45.8105 35.7216 45.9048 35.7225H48.5913L48.8478 35.1825H46.0923C45.9018 35.1825 45.7923 35.0565 45.8433 34.9005C45.8829 34.8148 45.9465 34.7425 46.0264 34.6922C46.1062 34.6419 46.1989 34.6158 46.2933 34.617H49.1193L49.3743 34.0755L46.4793 34.083C46.2888 34.083 46.1793 33.9555 46.2318 33.7995C46.2717 33.7141 46.3354 33.6419 46.4152 33.5917C46.4949 33.5414 46.5875 33.5151 46.6818 33.516H49.6488L49.8498 33.0915C49.3443 32.625 48.5208 32.3415 47.4993 32.3415C45.8493 32.3415 44.1783 33.1095 43.3503 34.1595C40.8888 34.1865 38.2608 34.254 35.1153 34.509C35.1303 34.473 35.1453 34.437 35.1618 34.401C35.6118 33.4005 35.9838 32.5455 36.0618 32.3475L38.2248 27.273C39.2537 26.9079 40.2182 26.3818 41.0823 25.7145C40.8798 26.2575 40.6848 26.757 40.4958 27.201C40.4643 27.279 40.4298 27.351 40.3968 27.432C40.3203 27.6075 40.2468 27.7785 40.1673 27.9435C39.6723 29.073 38.4228 32.3265 38.2668 32.7435C38.2158 32.8755 38.3178 32.9595 38.4543 32.9955C38.6956 33.0321 38.9414 33.0291 39.1818 32.9865C40.2468 32.8605 40.9968 32.377 41.4318 31.536C41.6598 31.08 41.8688 30.6915 42.0588 30.3705C42.9312 28.8598 43.9894 27.4645 45.2088 26.217C46.3748 25.039 47.2153 24.4195 47.7303 24.3585C47.8454 24.3333 47.9657 24.3487 48.0708 24.402C48.1071 24.4313 48.1348 24.47 48.1506 24.5139C48.1665 24.5578 48.17 24.6052 48.1608 24.651C48.1488 24.798 47.8868 25.298 47.3748 26.151L47.2548 26.3625C46.6548 27.3885 46.2048 28.2275 45.9048 28.8795C45.6048 29.5315 45.4348 30.005 45.3948 30.3C45.3408 30.957 45.6358 31.3995 46.2798 31.6275C46.9578 31.8675 49.7613 31.698 50.4108 31.6635L51.3558 29.6655C49.9803 29.148 48.6558 30.5955 48.5493 29.6655C48.4563 28.884 51.4278 23.5035 51.6243 23.007C51.7743 22.614 51.5328 22.2795 51.2463 22.0815V22.086ZM26.2503 24.099C26.1588 24.399 25.8843 24.5085 25.7193 24.3885C25.4928 24.225 25.9503 23.811 25.4883 23.403C25.2693 23.2095 24.9528 22.989 25.0218 22.698C25.0401 22.6477 25.0683 22.6015 25.1046 22.5621C25.141 22.5228 25.1847 22.491 25.2334 22.4687C25.2821 22.4464 25.3347 22.4339 25.3883 22.4321C25.4418 22.4303 25.4952 22.4391 25.5453 22.458C25.8445 22.5964 26.082 22.8405 26.2121 23.1434C26.3423 23.4463 26.3559 23.7867 26.2503 24.099ZM26.7708 41.637C24.8898 42.8655 23.1843 41.8245 23.1708 40.503C23.1558 38.2005 27.0423 37.4895 31.4628 36.768C29.7978 39.318 28.2018 40.6995 26.7663 41.637" fill="black"/>
</svg>
