<?xml version="1.0" encoding="utf-8"?>
<!-- Generator: Adobe Illustrator 23.0.0, SVG Export Plug-In . SVG Version: 6.00 Build 0)  -->
<svg version="1.1" id="Layer_1" xmlns="http://www.w3.org/2000/svg" xmlns:xlink="http://www.w3.org/1999/xlink" x="0px" y="0px"
	 viewBox="0 0 38 30" style="enable-background:new 0 0 38 30;" xml:space="preserve">
<style type="text/css">
	.st0{fill:#FFFFFF;}
	.st1{fill:#0F9548;}
	.st2{fill:#057A41;}
	.st3{fill:#3DAE2B;}
	.st4{fill:#231F20;}
</style>
<path class="st0" d="M29.9,2.6c-3.1-1.6-6.5-2.5-10-2.6c-0.1,0-0.3,0-0.4,0c-8,0-14.6,6.6-14.6,14.8c0,0.2,0,0.3,0,0.5
	c0.1,3.8,1.7,7.5,4.5,10.1c2.7,2.7,6.3,4.1,10.1,4.1c0.2,0,1.6-0.1,2.1-0.1c2.9-0.3,5.7-1.1,8.3-2.5l1-0.5V3.1L29.9,2.6z"/>
<path class="st1" d="M5.2,34.5l-2.5,3.1l2.8,3.2v0.1H3.7l-2.3-2.7v2.7H0v-6.4h1.4v2.6l2.1-2.6L5.2,34.5L5.2,34.5z"/>
<path class="st1" d="M7.3,34.4H5.9v6.4h1.4V34.4z"/>
<path class="st1" d="M9.8,35.7H7.9v-1.3h5.2v1.3h-1.9v5.1H9.8V35.7z"/>
<path class="st1" d="M19.1,40.1c-0.3,0.3-0.7,0.6-1.1,0.7c-0.9,0.3-1.9,0.3-2.8,0c-0.4-0.2-0.7-0.4-1-0.7c-0.3-0.3-0.5-0.7-0.6-1.1
	c-0.1-0.4-0.2-0.8-0.2-1.3c0-0.4,0.1-0.8,0.2-1.2c0.1-0.4,0.3-0.8,0.6-1.1c0.3-0.3,0.6-0.6,1-0.8c0.5-0.2,1-0.3,1.5-0.3
	c0.4,0,0.8,0.1,1.2,0.2c0.4,0.2,0.8,0.4,1.1,0.7l-0.9,0.9c-0.2-0.2-0.4-0.3-0.7-0.4c-0.2-0.1-0.5-0.1-0.8-0.1
	c-0.3,0-0.6,0.1-0.9,0.2c-0.2,0.1-0.4,0.3-0.6,0.5c-0.2,0.2-0.3,0.4-0.3,0.7c-0.1,0.5-0.1,1,0,1.4c0.1,0.2,0.2,0.5,0.3,0.6
	c0.2,0.2,0.4,0.4,0.6,0.5c0.4,0.2,0.9,0.2,1.3,0.1c0.1,0,0.3-0.1,0.4-0.1c0.1-0.1,0.3-0.1,0.4-0.2c0.1-0.1,0.2-0.2,0.3-0.3
	L19.1,40.1z"/>
<path class="st1" d="M24,40.8v-2.5h-2.8v2.5h-1.4v-6.4h1.4V37H24v-2.6h1.4v6.4H24z"/>
<path class="st1" d="M31.4,40.8h-4.8v-6.4h4.7v1.3H28V37h3.1v1.2H28v1.3h3.4V40.8z"/>
<path class="st1" d="M36.7,38.6l-0.1-2v-2.2H38v6.4h-1.2l-3.1-4.1l0.1,2.1v2h-1.4v-6.4h1.2L36.7,38.6z"/>
<path class="st2" d="M20.8,22.8c-0.4,0.3-0.9,0.5-1.3,0.5c-0.2,0-0.4,0-0.5-0.1c1,1.3,1.8,2.8,2.4,4.3l0,0.1c2.7-0.2,5.2-1,7.6-2.3
	v-0.2c-0.4-0.2-0.8-0.4-1.2-0.6C25.6,23.6,23.2,23,20.8,22.8z"/>
<path class="st3" d="M18.9,23.2c-0.4-0.1-0.8-0.4-1.1-0.7c-0.3-0.4-0.5-0.8-0.5-1.2c-2.8-3-6.5-5.1-10.5-6c0.1,3.3,1.5,6.5,3.9,8.8
	c2.4,2.3,5.5,3.6,8.8,3.6c0.2,0,0.4,0,0.6,0c0.5,0,0.9,0,1.4-0.1l0-0.1C20.7,26,19.9,24.6,18.9,23.2"/>
<path class="st4" d="M19.8,1.9c-0.1,0-0.2,0-0.4,0c-1.7,0-3.3,0.3-4.8,1c-1.5,0.6-2.9,1.6-4.1,2.8C9.3,6.9,8.4,8.3,7.8,9.9
	c-0.6,1.6-1,3.2-1,4.9c0,0.2,0,0.3,0,0.5c4,0.9,7.7,3,10.5,6c0-0.1,0-0.1,0-0.2V8.9c0-0.6,0.2-1.2,0.6-1.6c0.4-0.4,1-0.7,1.6-0.7
	c0.6,0,1.1,0.2,1.6,0.7c0.4,0.4,0.6,1,0.6,1.6v2H29V4.3C26.2,2.8,23,2,19.8,1.9z"/>
<path class="st4" d="M21.7,14.1h-1.7v7.2h1.7c0,0.3-0.1,0.6-0.3,0.9c-0.1,0.3-0.3,0.5-0.6,0.7c2.4,0.2,4.8,0.7,7,1.7
	c0.4,0.2,0.8,0.4,1.2,0.6v-11H21.7z"/>
</svg>
